<?xml version="1.0" encoding="utf-8"?>
<!-- Generator: Adobe Illustrator 18.0.0, SVG Export Plug-In . SVG Version: 6.00 Build 0)  -->
<!DOCTYPE svg PUBLIC "-//W3C//DTD SVG 1.1//EN" "http://www.w3.org/Graphics/SVG/1.1/DTD/svg11.dtd">
<svg version="1.1" id="Layer_1" xmlns="http://www.w3.org/2000/svg" xmlns:xlink="http://www.w3.org/1999/xlink" x="0px" y="0px"
	 viewBox="0 0 278.9 73.3" enable-background="new 0 0 278.9 73.3" xml:space="preserve">
<path fill-rule="evenodd" clip-rule="evenodd" fill="#2B2A29" d="M26.7,46.1c-1.5,2-3.1,3.4-4.8,4.4c-1.7,0.9-3.6,1.4-5.7,1.4
	c-4.8,0-8.6-1.5-11.6-4.3C1.5,44.6,0,40.8,0,36.1c0-4.2,1.5-7.8,4.6-10.9c3.1-3,6.6-4.6,10.7-4.6c2.5,0,4.6,0.6,6.6,1.8
	c1.9,1.2,3.5,2.9,4.6,5.1V14h-9.1v-1h8.4c1.5,0,2.9-0.1,4.1-0.4c1.3-0.3,2.5-0.7,3.7-1.3v38.7H36h2.5h2.3V22.6h-7.2v-1h6.5
	c1.8,0,3.3-0.1,4.6-0.2c1.3-0.1,2.4-0.4,3.2-0.7v29.3h4.4c-1-1.3-1.5-2.7-1.5-4.4c0-2,0.7-3.5,2.1-4.7c1.4-1.1,3.4-1.7,6-1.8
	c-2.1-1.2-3.6-2.5-4.6-3.8c-1-1.3-1.5-2.7-1.5-4.3c0-2.9,1.3-5.3,3.8-7.3c2.5-2,5.8-2.9,9.7-2.9c1.8,0,3.5,0.2,5,0.7
	c1.2,0.4,2.2,0.9,3.2,1.6c0.4-0.3,0.9-0.6,1.3-0.8c1-0.5,2.1-0.7,3.3-0.7h0.1l0,0h4.1c1.8,0,3.3,0,4.6-0.2c1.3-0.1,2.4-0.4,3.2-0.7
	v29.3h4.7v1H82.5c0.5,1.2,0.8,2.7,0.8,4.5c0,4.1-1.7,7.4-5,10.1c-3.3,2.6-7.7,3.9-13,3.9c-4.8,0-8.7-0.8-11.6-2.5
	c-2.9-1.7-4.4-3.8-4.4-6.4c0-1.6,0.7-3.1,2.1-4.5c1.4-1.4,3.4-2.6,5.9-3.5c-1.5-0.1-2.8-0.6-4-1.6H38.6H36h-9.4V46.1z M81.9,49.9H84
	V22.6H81c-1.9-0.1-3.1,0-4.1,0.3c-0.3,0.1-0.7,0.3-1,0.4c-0.2,0.1-0.4,0.2-0.6,0.3l0.7,0.6l0,0c1,1.1,1.8,2.2,2.3,3.3
	c0.5,1.1,0.8,2.2,0.8,3.3c0,2.8-1.3,5.2-3.9,7.1c-2.6,2-5.6,3-9.2,3c-0.9,0-2.2-0.2-3.9-0.6c-1.7-0.4-2.9-0.6-3.7-0.6
	c-1.7,0-3.1,0.4-4.3,1.1c-1.2,0.7-1.7,1.6-1.7,2.6c0,1.1,0.6,1.9,1.7,2.3c1.1,0.4,3.6,0.6,7.5,0.6h7.1c5.9,0,9.7,0.6,11.7,1.9
	C81,48.9,81.5,49.3,81.9,49.9z M39.9,15.1c0-0.9,0.4-1.7,1.3-2.3c0.8-0.7,1.9-1,3.1-1c1.2,0,2.3,0.3,3.1,1c0.8,0.7,1.3,1.4,1.3,2.3
	c0,0.9-0.4,1.7-1.2,2.4c-0.8,0.6-1.9,0.9-3.1,0.9c-1.2,0-2.3-0.3-3.1-1C40.4,16.8,39.9,16,39.9,15.1z M83.1,15.1
	c0-0.9,0.4-1.7,1.3-2.3c0.8-0.7,1.9-1,3.1-1c1.2,0,2.3,0.3,3.1,1c0.8,0.7,1.3,1.4,1.3,2.3c0,0.9-0.4,1.7-1.2,2.4
	c-0.8,0.6-1.9,0.9-3.1,0.9c-1.2,0-2.3-0.3-3.1-1C83.5,16.8,83.1,16,83.1,15.1z M7.7,40.4c0,3.7,0.6,6.3,1.9,7.9
	c1.2,1.6,3.3,2.4,6.1,2.4c2.4,0,4.6-0.6,6.4-1.9c1.8-1.2,3.3-3.1,4.5-5.5V30.2c-1.1-2.6-2.6-4.6-4.4-6c-1.9-1.4-4-2.1-6.3-2.1
	c-2.7,0-4.7,0.8-6.1,2.5c-1.4,1.7-2,4.1-2,7.4V40.4z M71,52.3h-7.4c-3.2,0-5.7,0.7-7.4,2c-1.7,1.4-2.6,3.3-2.6,5.8
	c0,2.5,1,4.5,3.1,5.9c2.1,1.5,4.9,2.2,8.5,2.2c4.6,0,8.4-1.1,11.5-3.3c3.1-2.2,4.7-4.8,4.7-7.8c0-1.8-0.7-3-2.3-3.8
	C77.7,52.6,74.9,52.3,71,52.3z M59.1,31.9c0,2.8,0.6,4.9,1.7,6.2c1.1,1.3,2.9,1.9,5.4,1.9c2.5,0,4.2-0.7,5.2-2
	c1-1.4,1.5-3.9,1.5-7.5c0-3.2-0.5-5.5-1.6-6.9c-1.1-1.4-2.8-2.1-5.2-2.1c-2.5,0-4.4,0.8-5.4,2.3C59.6,25.3,59.1,28,59.1,31.9z"/>
<path fill="#E31E24" d="M204.4,45.8c0,1.6,0.3,2.8,0.8,3.5c0.5,0.7,1.5,1,2.8,1c1.4,0,2.6-0.4,3.7-1.1c1.1-0.7,1.8-1.7,2.4-3h1.2
	c-0.6,1.8-1.7,3.2-3.2,4.2c-1.5,1-3.3,1.5-5.4,1.5c-1.4,0-2.6-0.2-3.8-0.6c-1.2-0.4-2.2-0.9-3.1-1.7c-0.7-0.6-1.1-1.2-1.4-1.9
	c-0.3-0.7-0.4-1.7-0.4-3.1v-1.5V22.6h-5.9v-1c3.3,0,5.9-0.8,7.7-2.3c1.8-1.6,3-4.5,3.6-7.9h1v10.3h9.4v1h-9.4V45.8z M173.2,33.3v8.6
	c0,3.1,0.7,5.3,2,6.7c1.3,1.4,3.5,2.1,6.4,2.1c2.9,0,5.5-0.8,7.6-2.5c2.1-1.7,3.7-4,4.5-7h1.3c-1,3.4-2.7,6-5.2,7.9
	c-2.4,1.9-5.3,2.8-8.6,2.8c-4.3,0-8.1-1.5-11.2-4.5c-3.1-3-4.6-6.6-4.6-11c0-4.5,1.4-8.3,4.2-11.3c2.8-3,6.2-4.5,10.3-4.5
	c3.9,0,7.2,1.2,10,3.6c2.7,2.4,4.3,5.4,4.6,9.1H173.2z M173.2,32.2h13v-3.5c0-2.4-0.5-4.2-1.6-5.4c-1.1-1.2-2.7-1.7-5-1.7
	c-2.1,0-3.8,0.7-4.8,2c-1.1,1.3-1.6,3.4-1.6,6.1V32.2z M143.2,45.5v-10c-0.3,0-0.6,0-1-0.1c-0.4,0-0.9,0-1.5,0c-3.9,0-6.8,0.7-8.7,2
	c-1.9,1.3-2.8,3.4-2.8,6.1c0,2.1,0.5,3.7,1.6,4.9c1.1,1.2,2.5,1.7,4.4,1.7c1.6,0,3.2-0.4,4.7-1.3C141.2,48.1,142.4,47,143.2,45.5z
	 M152.2,49.9h0.3h0l0,0l0.4,0h2.6V14h-9.1v-1h8.3c1.6,0,3-0.1,4.2-0.4c1.2-0.3,2.5-0.7,3.6-1.3v38.7h4.7v1h-13.8
	c-1,0.4-2.1,0.7-3.2,0.7c-1.8,0-3.2-0.4-4.4-1.2c-1.2-0.8-2-2-2.3-3.5c-1.1,1.6-2.6,2.9-4.6,3.7c-2,0.8-4.5,1.2-7.4,1.2
	c-2.8,0-5.1-0.7-7-2.1c-1.8-1.4-2.8-3.2-2.8-5.3c0-3.2,1.8-5.6,5.5-7.4c3.6-1.7,8.8-2.6,15.5-2.6h0.4V27c0-1.9-0.5-3.2-1.5-4.1
	c-1-0.8-2.7-1.2-5-1.2c-1.9,0-3.6,0.4-5.1,1.2c-1.5,0.8-2.2,1.6-2.2,2.4c0,0.1,0.4,0.4,1.2,1.1c0.8,0.7,1.2,1.4,1.2,2.2
	c0,1.1-0.3,1.9-1,2.6c-0.7,0.6-1.6,0.9-2.6,0.9c-1.2,0-2.1-0.3-2.8-1c-0.7-0.6-1.1-1.5-1.1-2.5c0-2.2,1.2-4.1,3.6-5.6
	c2.4-1.5,5.4-2.3,9-2.3c1.8,0,3.5,0.2,5,0.7c1.6,0.4,3,1.1,4.4,1.9c1.3,0.8,2.2,1.7,2.7,2.6c0.5,0.9,0.7,2.4,0.7,4.5v14.8
	c0,1.6,0.2,2.8,0.6,3.5C150.8,49.4,151.4,49.8,152.2,49.9z M94.9,22.6h-3.6v-1h15.7v1h-4.8l10.1,20.8l7.8-16.6
	c0.3-0.5,0.4-0.9,0.5-1.3c0.1-0.4,0.2-0.7,0.2-1c0-0.7-0.3-1.1-0.9-1.4c-0.6-0.3-2.1-0.4-4.5-0.5v-1h11.7v1h-0.5
	c-1.1,0-2.1,0.4-2.8,1.1c-0.8,0.7-1.7,2.3-2.9,4.7l-10.8,23.1l-0.7,0.4L94.9,22.6z"/>
<path fill="#82898D" d="M264.6,68.5c0-0.4,0.1-0.7,0.4-0.9c0.2-0.2,0.5-0.4,0.9-0.4c0.4,0,0.7,0.1,0.9,0.4c0.3,0.3,0.4,0.6,0.4,0.9
	c0,0.4-0.1,0.7-0.4,0.9c-0.3,0.2-0.6,0.4-0.9,0.4c-0.4,0-0.7-0.1-0.9-0.4C264.8,69.2,264.6,68.9,264.6,68.5 M259.4,65h2.5v-0.1
	c0-0.4-0.1-0.7-0.3-0.9c-0.2-0.2-0.4-0.3-0.8-0.3c-0.3,0-0.6,0.1-0.9,0.3C259.7,64.2,259.5,64.6,259.4,65z M263.1,69.2
	c-0.4,0.2-0.8,0.3-1.3,0.4c-0.5,0.1-0.9,0.1-1.4,0.1c-1.1,0-2-0.3-2.6-0.9c-0.6-0.6-1-1.5-1-2.6c0-1.2,0.4-2.2,1.1-2.9
	c0.7-0.7,1.7-1.1,2.9-1.1c1,0,1.7,0.3,2.3,0.8c0.5,0.6,0.8,1.4,0.8,2.4c0,0.1,0,0.3,0,0.4c0,0.1,0,0.3,0,0.4l-4.8,0c0,0,0,0.1,0,0.1
	c0,0,0,0.1,0,0.1c0,0.5,0.2,0.9,0.5,1.2c0.3,0.3,0.8,0.4,1.3,0.4c0.3,0,0.7-0.1,1.1-0.2c0.4-0.1,0.9-0.3,1.5-0.6L263.1,69.2z
	 M250.8,69.6l1.1-7.3h2.1l-0.1,1c0.4-0.5,0.7-0.8,1-0.9c0.2-0.2,0.5-0.2,0.7-0.2c0.2,0,0.4,0,0.6,0.1c0.2,0.1,0.5,0.2,0.7,0.4
	l-1,2.2c-0.2-0.2-0.4-0.4-0.5-0.5c-0.2-0.1-0.3-0.1-0.5-0.1c-0.2,0-0.4,0.1-0.6,0.2c-0.2,0.2-0.4,0.4-0.7,0.7l-0.6,4.3H250.8z
	 M247.3,69.6l1.1-7.3h2.1l-1.1,7.3H247.3z M248.5,60.3c0-0.3,0.1-0.6,0.3-0.8c0.2-0.2,0.5-0.3,0.8-0.3c0.3,0,0.6,0.1,0.8,0.3
	c0.2,0.2,0.3,0.5,0.3,0.8c0,0.3-0.1,0.6-0.3,0.8c-0.2,0.2-0.5,0.3-0.8,0.3c-0.3,0-0.6-0.1-0.8-0.3C248.6,60.9,248.5,60.6,248.5,60.3
	z M238.8,73.2l1.2-8.3c-0.3,0.2-0.6,0.5-0.8,0.8c-0.2,0.3-0.4,0.5-0.4,0.5c0,0-0.1,0-0.1,0c0,0,0-0.1,0-0.1c0-0.3,0.1-0.7,0.4-1.2
	c0.3-0.5,0.7-0.9,1.1-1.2l0.4-2.5h2.1l-0.2,1.4c0.2-0.1,0.5-0.1,0.7-0.2c0.2,0,0.4-0.1,0.6-0.1c0.9,0,1.6,0.3,2.2,0.9
	c0.6,0.6,0.9,1.3,0.9,2.1c0,1.3-0.4,2.4-1.3,3.3c-0.8,0.8-1.9,1.3-3.3,1.3c-0.2,0-0.5,0-0.9-0.1l-0.1,0l-0.5,3.5H238.8z M241.7,67.9
	c0.1,0,0.2,0,0.3,0c0.1,0,0.2,0,0.3,0c0.7,0,1.3-0.2,1.7-0.7c0.4-0.5,0.6-1.1,0.6-1.9c0-0.5-0.1-0.9-0.4-1.2
	c-0.3-0.3-0.6-0.4-1.1-0.4c-0.1,0-0.3,0-0.4,0c-0.1,0-0.3,0.1-0.5,0.1L241.7,67.9z M233.3,69.1l0.2-1.7l0.1,0c1,0.4,1.7,0.6,2.2,0.6
	c0.2,0,0.3,0,0.4-0.1c0.1-0.1,0.2-0.2,0.2-0.3c0-0.2-0.2-0.5-0.7-0.8c-0.3-0.2-0.5-0.4-0.6-0.5c-0.5-0.4-0.8-0.8-0.9-1
	c-0.2-0.3-0.2-0.6-0.2-0.9c0-0.6,0.2-1.2,0.7-1.6c0.5-0.4,1.1-0.6,1.9-0.6c0.4,0,0.7,0.1,1.1,0.2c0.4,0.1,0.8,0.3,1.2,0.5l-0.1,1.7
	c-0.4-0.2-0.8-0.4-1.2-0.5c-0.3-0.1-0.6-0.2-0.8-0.2c-0.2,0-0.3,0-0.4,0.1c-0.1,0.1-0.2,0.2-0.2,0.3c0,0.2,0.3,0.5,0.8,0.9
	c0.3,0.2,0.5,0.4,0.6,0.5c0.4,0.3,0.7,0.6,0.8,0.9c0.1,0.3,0.2,0.6,0.2,0.9c0,0.7-0.2,1.2-0.8,1.7c-0.5,0.4-1.1,0.7-1.9,0.7
	c-0.4,0-0.8-0.1-1.3-0.2C234.1,69.5,233.7,69.3,233.3,69.1z M225.5,69.6l1.1-7.3h2.1l-0.1,0.8c0.4-0.3,0.8-0.6,1.2-0.7
	c0.4-0.2,0.8-0.2,1.2-0.2c0.6,0,1.1,0.2,1.5,0.5c0.4,0.4,0.5,0.8,0.5,1.5c0,0.1,0,0.3,0,0.4c0,0.1,0,0.3,0,0.4l-0.7,4.6h-2.1
	l0.7-4.4c0-0.1,0-0.3,0-0.4c0-0.1,0-0.2,0-0.3c0-0.2-0.1-0.4-0.2-0.6c-0.1-0.1-0.3-0.2-0.5-0.2c-0.3,0-0.6,0.1-0.9,0.3
	c-0.3,0.2-0.6,0.5-1,0.8l-0.7,4.7H225.5z M221.5,69.6l1.6-10.8h2.4l-1.6,10.8H221.5z M214.5,68.5c0-0.4,0.1-0.7,0.4-0.9
	c0.2-0.2,0.5-0.4,0.9-0.4c0.4,0,0.7,0.1,0.9,0.4c0.3,0.3,0.4,0.6,0.4,0.9c0,0.4-0.1,0.7-0.4,0.9c-0.3,0.2-0.6,0.4-0.9,0.4
	c-0.4,0-0.7-0.1-0.9-0.4C214.6,69.2,214.5,68.9,214.5,68.5z M213.8,69.3c-0.3,0.2-0.6,0.3-0.9,0.4c-0.3,0.1-0.6,0.1-0.9,0.1
	c-0.7,0-1.3-0.2-1.7-0.6c-0.4-0.4-0.6-1-0.6-1.8c0-0.1,0-0.2,0-0.4c0-0.2,0-0.3,0.1-0.5l0.4-2.5h-1.5l0.3-1.6h1.5l0.3-1.5h2.1
	l-0.2,1.5h1.6l-0.2,1.6h-1.6l-0.4,2.6c0,0,0,0,0,0.1c0,0.1,0,0.2,0,0.3c0,0.3,0.1,0.5,0.2,0.6c0.1,0.1,0.3,0.2,0.5,0.2
	c0.1,0,0.3,0,0.5-0.1c0.2-0.1,0.4-0.2,0.7-0.3V69.3z M200.7,69.6l1.6-10.8h2.1l-0.6,4.3c0.4-0.3,0.8-0.6,1.2-0.7
	c0.4-0.2,0.8-0.2,1.2-0.2c0.6,0,1.1,0.2,1.5,0.5c0.4,0.4,0.5,0.8,0.5,1.5c0,0.1,0,0.3,0,0.4c0,0.1,0,0.3,0,0.4l-0.7,4.6h-2.1
	l0.7-4.4c0-0.1,0-0.1,0-0.2c0-0.2,0-0.3,0-0.4c0-0.3-0.1-0.5-0.2-0.6c-0.1-0.1-0.3-0.2-0.5-0.2c-0.3,0-0.6,0.1-0.9,0.3
	c-0.3,0.2-0.6,0.5-1,0.8l-0.7,4.7H200.7z M194.7,67c-0.4-0.2-0.7-0.5-0.9-0.9c-0.2-0.4-0.3-0.7-0.3-1.2c0-0.4,0.1-0.8,0.3-1.1
	c0.2-0.4,0.5-0.7,0.8-0.9c0.3-0.2,0.7-0.4,1.2-0.5c0.5-0.1,1.3-0.1,2.6-0.1h2.6l-0.3,1.6l-1.1,0c0.1,0.2,0.1,0.4,0.2,0.6
	c0,0.2,0.1,0.3,0.1,0.5c0,0.8-0.3,1.4-0.9,1.9c-0.6,0.5-1.3,0.8-2.3,0.8c0,0-0.1,0-0.2,0c-0.1,0-0.2,0-0.3,0c-0.2,0-0.4,0-0.5,0.1
	c-0.1,0.1-0.2,0.2-0.2,0.3c0,0.2,0.4,0.4,1.3,0.5c0.2,0,0.4,0.1,0.6,0.1c0.8,0.1,1.4,0.4,1.9,0.8c0.4,0.4,0.6,0.9,0.6,1.4
	c0,0.8-0.3,1.4-1,1.8c-0.7,0.4-1.6,0.6-2.8,0.6c-1.1,0-2-0.2-2.6-0.5c-0.6-0.3-0.9-0.7-0.9-1.3c0-0.4,0.2-0.7,0.5-1
	c0.3-0.3,0.7-0.5,1.3-0.7c-0.3-0.2-0.6-0.4-0.7-0.6c-0.1-0.2-0.2-0.4-0.2-0.7c0-0.4,0.1-0.7,0.4-0.9C194,67.3,194.3,67.1,194.7,67z
	 M196.9,63.8c-0.3,0-0.6,0.1-0.8,0.4c-0.2,0.3-0.3,0.6-0.3,1c0,0.3,0.1,0.6,0.3,0.8c0.2,0.2,0.4,0.3,0.7,0.3c0.3,0,0.6-0.1,0.9-0.4
	c0.2-0.3,0.3-0.6,0.3-1.1c0-0.3-0.1-0.5-0.3-0.7C197.3,63.9,197.1,63.8,196.9,63.8z M195.9,70.3c-0.4,0.1-0.8,0.2-1,0.4
	c-0.2,0.1-0.4,0.3-0.4,0.5c0,0.2,0.1,0.4,0.4,0.5c0.3,0.1,0.7,0.2,1.2,0.2c0.5,0,0.9-0.1,1.2-0.2c0.3-0.1,0.4-0.3,0.4-0.5
	c0-0.2-0.1-0.3-0.4-0.5C197,70.6,196.5,70.5,195.9,70.3z M189.7,69.6l1.1-7.3h2.1l-1.1,7.3H189.7z M190.9,60.3
	c0-0.3,0.1-0.6,0.3-0.8c0.2-0.2,0.5-0.3,0.8-0.3c0.3,0,0.6,0.1,0.8,0.3c0.2,0.2,0.3,0.5,0.3,0.8c0,0.3-0.1,0.6-0.3,0.8
	c-0.2,0.2-0.5,0.3-0.8,0.3c-0.3,0-0.6-0.1-0.8-0.3C191,60.9,190.9,60.6,190.9,60.3z M186.2,69.6l1.6-10.8h2.1l-1.6,10.8H186.2z
	 M181.1,65h2.5v-0.1c0-0.4-0.1-0.7-0.3-0.9c-0.2-0.2-0.4-0.3-0.8-0.3c-0.3,0-0.6,0.1-0.9,0.3C181.5,64.2,181.3,64.6,181.1,65z
	 M184.9,69.2c-0.4,0.2-0.8,0.3-1.3,0.4c-0.5,0.1-0.9,0.1-1.4,0.1c-1.1,0-2-0.3-2.6-0.9c-0.6-0.6-1-1.5-1-2.6c0-1.2,0.4-2.2,1.1-2.9
	c0.7-0.7,1.7-1.1,2.9-1.1c1,0,1.7,0.3,2.3,0.8c0.5,0.6,0.8,1.4,0.8,2.4c0,0.1,0,0.3,0,0.4c0,0.1,0,0.3,0,0.4l-4.8,0c0,0,0,0.1,0,0.1
	c0,0,0,0.1,0,0.1c0,0.5,0.2,0.9,0.5,1.2c0.3,0.3,0.8,0.4,1.3,0.4c0.3,0,0.7-0.1,1.1-0.2c0.4-0.1,0.9-0.3,1.5-0.6L184.9,69.2z
	 M167.5,69.6l1.6-10.8c0.1,0,0.4,0,0.7,0c0.3,0,0.5,0,0.6,0c1.3,0,2.3,0.1,3.1,0.2c0.8,0.1,1.4,0.3,1.9,0.6c0.9,0.5,1.6,1.1,2.1,2
	c0.5,0.8,0.7,1.8,0.7,2.8c0,0.7-0.1,1.4-0.3,2c-0.2,0.6-0.5,1.1-1,1.6c-0.5,0.6-1.2,1-2,1.3c-0.8,0.3-1.8,0.4-3,0.4H167.5z
	 M170.1,67.8h2c1.1,0,2-0.3,2.7-0.9c0.7-0.6,1-1.5,1-2.5c0-1.1-0.4-2-1.1-2.7c-0.7-0.6-1.7-1-3-1c-0.1,0-0.2,0-0.3,0
	c-0.1,0-0.1,0-0.2,0L170.1,67.8z M160.4,68.5c0-0.4,0.1-0.7,0.4-0.9c0.2-0.2,0.5-0.4,0.9-0.4c0.4,0,0.7,0.1,0.9,0.4
	c0.3,0.3,0.4,0.6,0.4,0.9c0,0.4-0.1,0.7-0.4,0.9c-0.3,0.2-0.6,0.4-0.9,0.4c-0.4,0-0.7-0.1-0.9-0.4C160.6,69.2,160.4,68.9,160.4,68.5
	z M155.2,65h2.5v-0.1c0-0.4-0.1-0.7-0.3-0.9c-0.2-0.2-0.4-0.3-0.8-0.3c-0.3,0-0.6,0.1-0.9,0.3C155.5,64.2,155.3,64.6,155.2,65z
	 M158.9,69.2c-0.4,0.2-0.8,0.3-1.3,0.4c-0.5,0.1-0.9,0.1-1.4,0.1c-1.1,0-2-0.3-2.6-0.9c-0.6-0.6-1-1.5-1-2.6c0-1.2,0.4-2.2,1.1-2.9
	c0.7-0.7,1.7-1.1,2.9-1.1c1,0,1.7,0.3,2.3,0.8c0.5,0.6,0.8,1.4,0.8,2.4c0,0.1,0,0.3,0,0.4c0,0.1,0,0.3,0,0.4l-4.8,0c0,0,0,0.1,0,0.1
	c0,0,0,0.1,0,0.1c0,0.5,0.2,0.9,0.5,1.2c0.3,0.3,0.8,0.4,1.3,0.4c0.3,0,0.7-0.1,1.1-0.2c0.4-0.1,0.9-0.3,1.5-0.6L158.9,69.2z
	 M146.8,69.1l0.2-1.7l0.1,0c1,0.4,1.7,0.6,2.2,0.6c0.2,0,0.3,0,0.4-0.1c0.1-0.1,0.2-0.2,0.2-0.3c0-0.2-0.2-0.5-0.7-0.8
	c-0.3-0.2-0.5-0.4-0.6-0.5c-0.5-0.4-0.8-0.8-0.9-1c-0.2-0.3-0.2-0.6-0.2-0.9c0-0.6,0.2-1.2,0.7-1.6c0.5-0.4,1.1-0.6,1.9-0.6
	c0.4,0,0.7,0.1,1.1,0.2c0.4,0.1,0.8,0.3,1.2,0.5l-0.1,1.7c-0.4-0.2-0.8-0.4-1.2-0.5c-0.3-0.1-0.6-0.2-0.8-0.2c-0.2,0-0.3,0-0.4,0.1
	c-0.1,0.1-0.2,0.2-0.2,0.3c0,0.2,0.3,0.5,0.8,0.9c0.3,0.2,0.5,0.4,0.6,0.5c0.4,0.3,0.7,0.6,0.8,0.9c0.1,0.3,0.2,0.6,0.2,0.9
	c0,0.7-0.2,1.2-0.8,1.7c-0.5,0.4-1.1,0.7-1.9,0.7c-0.4,0-0.8-0.1-1.3-0.2C147.7,69.5,147.2,69.3,146.8,69.1z M143.6,69.6l1.1-7.3
	h2.1l-1.1,7.3H143.6z M144.9,60.3c0-0.3,0.1-0.6,0.3-0.8c0.2-0.2,0.5-0.3,0.8-0.3c0.3,0,0.6,0.1,0.8,0.3c0.2,0.2,0.3,0.5,0.3,0.8
	c0,0.3-0.1,0.6-0.3,0.8c-0.2,0.2-0.5,0.3-0.8,0.3c-0.3,0-0.6-0.1-0.8-0.3C145,60.9,144.9,60.6,144.9,60.3z M137.7,69.6l1.1-7.3h2.1
	l-0.1,1c0.4-0.5,0.7-0.8,1-0.9c0.2-0.2,0.5-0.2,0.7-0.2c0.2,0,0.4,0,0.6,0.1c0.2,0.1,0.5,0.2,0.7,0.4l-1,2.2
	c-0.2-0.2-0.4-0.4-0.5-0.5c-0.2-0.1-0.3-0.1-0.5-0.1c-0.2,0-0.4,0.1-0.6,0.2c-0.2,0.2-0.4,0.4-0.7,0.7l-0.6,4.3H137.7z M129.1,73.2
	l1.2-8.3c-0.3,0.2-0.6,0.5-0.8,0.8c-0.2,0.3-0.4,0.5-0.4,0.5c0,0-0.1,0-0.1,0c0,0,0-0.1,0-0.1c0-0.3,0.1-0.7,0.4-1.2
	c0.3-0.5,0.7-0.9,1.1-1.2l0.4-2.5h2.1l-0.2,1.4c0.2-0.1,0.5-0.1,0.7-0.2c0.2,0,0.4-0.1,0.6-0.1c0.9,0,1.6,0.3,2.2,0.9
	c0.6,0.6,0.9,1.3,0.9,2.1c0,1.3-0.4,2.4-1.3,3.3c-0.8,0.8-1.9,1.3-3.3,1.3c-0.2,0-0.5,0-0.9-0.1l-0.1,0l-0.5,3.5H129.1z M132,67.9
	c0.1,0,0.2,0,0.3,0c0.1,0,0.2,0,0.3,0c0.7,0,1.3-0.2,1.7-0.7c0.4-0.5,0.6-1.1,0.6-1.9c0-0.5-0.1-0.9-0.4-1.2
	c-0.3-0.3-0.6-0.4-1.1-0.4c-0.1,0-0.3,0-0.4,0c-0.1,0-0.3,0.1-0.5,0.1L132,67.9z M123.4,69.6l1.1-7.3h2.1l-0.1,1
	c0.4-0.5,0.7-0.8,1-0.9c0.2-0.2,0.5-0.2,0.7-0.2c0.2,0,0.4,0,0.6,0.1c0.2,0.1,0.5,0.2,0.7,0.4l-1,2.2c-0.2-0.2-0.4-0.4-0.5-0.5
	c-0.2-0.1-0.3-0.1-0.5-0.1c-0.2,0-0.4,0.1-0.6,0.2c-0.2,0.2-0.4,0.4-0.7,0.7l-0.6,4.3H123.4z M116.4,62.4h2.1l-0.7,4.4
	c0,0.1,0,0.3,0,0.4c0,0.1,0,0.2,0,0.2c0,0.3,0.1,0.5,0.2,0.6c0.1,0.1,0.3,0.2,0.5,0.2c0.3,0,0.6-0.1,0.9-0.3c0.3-0.2,0.6-0.5,1-0.8
	l0.7-4.7h2.1l-1.1,7.3h-2.1l0.1-0.8c-0.4,0.3-0.8,0.6-1.2,0.7c-0.4,0.2-0.8,0.2-1.2,0.2c-0.6,0-1.1-0.2-1.5-0.5
	c-0.4-0.4-0.5-0.8-0.5-1.5c0-0.1,0-0.3,0-0.4c0-0.1,0-0.3,0-0.4L116.4,62.4z M107.7,66.8c0.6,0.4,1.2,0.6,1.7,0.8
	c0.5,0.2,0.9,0.3,1.3,0.3c0.5,0,0.9-0.1,1.2-0.3c0.3-0.2,0.4-0.5,0.4-0.9c0-0.5-0.5-1-1.5-1.7c-0.2-0.1-0.4-0.3-0.5-0.3
	c-0.7-0.4-1.2-0.9-1.5-1.3c-0.3-0.5-0.5-0.9-0.5-1.4c0-0.9,0.4-1.7,1.1-2.3c0.7-0.6,1.7-0.9,2.8-0.9c0.5,0,1,0.1,1.5,0.2
	c0.5,0.1,1,0.3,1.5,0.6l-0.4,1.9c-0.5-0.3-0.9-0.5-1.4-0.6c-0.4-0.1-0.8-0.2-1.2-0.2c-0.5,0-0.8,0.1-1.1,0.3
	c-0.3,0.2-0.4,0.5-0.4,0.8c0,0.4,0.4,0.8,1.2,1.4c0.4,0.2,0.6,0.4,0.9,0.6c0.7,0.5,1.2,1,1.5,1.4c0.3,0.4,0.4,0.9,0.4,1.4
	c0,1-0.3,1.8-1,2.4c-0.7,0.6-1.6,0.9-2.6,0.9c-0.6,0-1.2-0.1-1.8-0.3c-0.6-0.2-1.2-0.5-1.8-0.8L107.7,66.8z"/>
<path fill="#82898D" d="M244.1,28.6l3.4,2.5l-1.3,4.1l3.4-2.5c1.2,0.8,2.3,1.7,3.5,2.5l-1.4-4.1c1.2-0.8,2.3-1.7,3.5-2.5l-4.3,0
	c-0.4-1.4-0.9-2.7-1.3-4.1l-1.3,4.1C247,28.5,245.6,28.6,244.1,28.6"/>
<polygon fill="#D7B56D" points="250.7,25.6 267.9,25.6 262.1,29.9 262.7,31.8 276.9,21.5 250.7,21.5 250,23.4 "/>
<polygon fill-rule="evenodd" clip-rule="evenodd" fill="#FEFEFE" points="249.7,26.7 250.5,29.2 253.1,29.2 251,30.8 251.8,33.3 
	249.7,31.7 247.6,33.3 248.4,30.8 246.3,29.2 248.9,29.2 "/>
<polygon fill-rule="evenodd" clip-rule="evenodd" fill="#009846" points="246,33.7 231.9,23.4 239.6,23.4 240.3,21.5 222.4,21.5 
	243.7,37 245.3,35.8 "/>
<polygon fill-rule="evenodd" clip-rule="evenodd" fill="#EF7F1A" points="251.6,34.8 237.7,44.9 240,38 238.4,36.7 232.9,53.4 
	254.1,38 253.5,36.2 "/>
<polygon fill="#009BCB" points="254.4,30 259.7,46.2 254,42.1 252.2,43.2 266.4,53.5 258.3,28.5 256.4,28.5 "/>
<polygon fill="#E41D2D" points="253.1,18.7 255.1,18.7 249.7,2 241.6,26.7 243.2,27.9 245.6,27.9 250.8,11.7 "/>
</svg>
